TITLE ""
FILE "Disc1Track65.mp3" MP3
  TRACK 01 AUDIO
    TITLE "Disc1Track65_01"
    INDEX 01 00:00:00
  TRACK 02 AUDIO
    TITLE "Disc1Track65_02"
    INDEX 01 00:01:18
  TRACK 03 AUDIO
    TITLE "Disc1Track65_03"
    INDEX 01 00:04:61
  TRACK 04 AUDIO
    TITLE "Disc1Track65_04"
    INDEX 01 00:06:15
  TRACK 05 AUDIO
    TITLE "Disc1Track65_05"
    INDEX 01 00:11:65
  TRACK 06 AUDIO
    TITLE "Disc1Track65_06"
    INDEX 01 00:12:21
  TRACK 07 AUDIO
    TITLE "Disc1Track65_07"
    INDEX 01 00:13:62
  TRACK 08 AUDIO
    TITLE "Disc1Track65_08"
    INDEX 01 00:15:63
  TRACK 09 AUDIO
    TITLE "Disc1Track65_09"
    INDEX 01 00:17:28
  TRACK 10 AUDIO
    TITLE "Disc1Track65_10"
    INDEX 01 00:17:62
  TRACK 11 AUDIO
    TITLE "Disc1Track65_11"
    INDEX 01 00:19:15
  TRACK 12 AUDIO
    TITLE "Disc1Track65_12"
    INDEX 01 00:22:20
  TRACK 13 AUDIO
    TITLE "Disc1Track65_13"
    INDEX 01 00:23:49
  TRACK 14 AUDIO
    TITLE "Disc1Track65_14"
    INDEX 01 00:27:44
  TRACK 15 AUDIO
    TITLE "Disc1Track65_15"
    INDEX 01 00:27:74
  TRACK 16 AUDIO
    TITLE "Disc1Track65_16"
    INDEX 01 00:29:39
  TRACK 17 AUDIO
    TITLE "Disc1Track65_17"
    INDEX 01 00:31:30
  TRACK 18 AUDIO
    TITLE "Disc1Track65_18"
    INDEX 01 00:32:71
  TRACK 19 AUDIO
    TITLE "Disc1Track65_19"
    INDEX 01 00:33:35
  TRACK 20 AUDIO
    TITLE "Disc1Track65_20"
    INDEX 01 00:34:60
  TRACK 21 AUDIO
    TITLE "Disc1Track65_21"
    INDEX 01 00:36:18
  TRACK 22 AUDIO
    TITLE "Disc1Track65_22"
    INDEX 01 00:37:43
  TRACK 23 AUDIO
    TITLE "Disc1Track65_23"
    INDEX 01 00:42:46
  TRACK 24 AUDIO
    TITLE "Disc1Track65_24"
    INDEX 01 00:43:02
  TRACK 25 AUDIO
    TITLE "Disc1Track65_25"
    INDEX 01 00:44:41
  TRACK 26 AUDIO
    TITLE "Disc1Track65_26"
    INDEX 01 00:47:31
  TRACK 27 AUDIO
    TITLE "Disc1Track65_27"
    INDEX 01 00:48:70
  TRACK 28 AUDIO
    TITLE "Disc1Track65_28"
    INDEX 01 00:50:75
  TRACK 29 AUDIO
    TITLE "Disc1Track65_29"
    INDEX 01 00:51:29
  TRACK 30 AUDIO
    TITLE "Disc1Track65_30"
    INDEX 01 00:52:68
  TRACK 31 AUDIO
    TITLE "Disc1Track65_31"
    INDEX 01 00:55:17
  TRACK 32 AUDIO
    TITLE "Disc1Track65_32"
    INDEX 01 00:56:54
  TRACK 33 AUDIO
    TITLE "Disc1Track65_33"
    INDEX 01 01:02:64
  TRACK 34 AUDIO
    TITLE "Disc1Track65_34"
    INDEX 01 01:03:21
  TRACK 35 AUDIO
    TITLE "Disc1Track65_35"
    INDEX 01 01:04:67
  TRACK 36 AUDIO
    TITLE "Disc1Track65_36"
    INDEX 01 01:06:62
  TRACK 37 AUDIO
    TITLE "Disc1Track65_37"
    INDEX 01 01:08:36
  TRACK 38 AUDIO
    TITLE "Disc1Track65_38"
    INDEX 01 01:08:69
  TRACK 39 AUDIO
    TITLE "Disc1Track65_39"
    INDEX 01 01:10:25
  TRACK 40 AUDIO
    TITLE "Disc1Track65_40"
    INDEX 01 01:11:52
  TRACK 41 AUDIO
    TITLE "Disc1Track65_41"
    INDEX 01 01:13:05
  TRACK 42 AUDIO
    TITLE "Disc1Track65_42"
    INDEX 01 01:17:17
  TRACK 43 AUDIO
    TITLE "Disc1Track65_43"
    INDEX 01 01:17:48
  TRACK 44 AUDIO
    TITLE "Disc1Track65_44"
    INDEX 01 01:18:73
  TRACK 45 AUDIO
    TITLE "Disc1Track65_45"
    INDEX 01 01:22:24
  TRACK 46 AUDIO
    TITLE "Disc1Track65_46"
    INDEX 01 01:23:49
  TRACK 47 AUDIO
    TITLE "Disc1Track65_47"
    INDEX 01 01:27:04
  TRACK 48 AUDIO
    TITLE "Disc1Track65_48"
    INDEX 01 01:27:33
  TRACK 49 AUDIO
    TITLE "Disc1Track65_49"
    INDEX 01 01:28:66
  TRACK 50 AUDIO
    TITLE "Disc1Track65_50"
    INDEX 01 01:30:14
  TRACK 51 AUDIO
    TITLE "Disc1Track65_51"
    INDEX 01 01:31:42
  TRACK 52 AUDIO
    TITLE "Disc1Track65_52"
    INDEX 01 01:35:25
  TRACK 53 AUDIO
    TITLE "Disc1Track65_53"
    INDEX 01 01:35:56
  TRACK 54 AUDIO
    TITLE "Disc1Track65_54"
    INDEX 01 01:37:12
  TRACK 55 AUDIO
    TITLE "Disc1Track65_55"
    INDEX 01 01:40:49
  TRACK 56 AUDIO
    TITLE "Disc1Track65_56"
    INDEX 01 01:42:03
  TRACK 57 AUDIO
    TITLE "Disc1Track65_57"
    INDEX 01 01:45:25
  TRACK 58 AUDIO
    TITLE "Disc1Track65_58"
    INDEX 01 01:45:56
  TRACK 59 AUDIO
    TITLE "Disc1Track65_59"
    INDEX 01 01:47:20
  TRACK 60 AUDIO
    TITLE "Disc1Track65_60"
    INDEX 01 01:49:15
  TRACK 61 AUDIO
    TITLE "Disc1Track65_61"
    INDEX 01 01:50:54
  TRACK 62 AUDIO
    TITLE "Disc1Track65_62"
    INDEX 01 01:52:72
  TRACK 63 AUDIO
    TITLE "Disc1Track65_63"
    INDEX 01 01:53:28
  TRACK 64 AUDIO
    TITLE "Disc1Track65_64"
    INDEX 01 01:54:57
  TRACK 65 AUDIO
    TITLE "Disc1Track65_65"
    INDEX 01 01:59:31
  TRACK 66 AUDIO
    TITLE "Disc1Track65_66"
    INDEX 01 02:00:58
  TRACK 67 AUDIO
    TITLE "Disc1Track65_67"
    INDEX 01 02:04:54
  TRACK 68 AUDIO
    TITLE "Disc1Track65_68"
    INDEX 01 02:05:10
  TRACK 69 AUDIO
    TITLE "Disc1Track65_69"
    INDEX 01 02:06:45
  TRACK 70 AUDIO
    TITLE "Disc1Track65_70"
    INDEX 01 02:08:40
  TRACK 71 AUDIO
    TITLE "Disc1Track65_71"
    INDEX 01 02:10:01
  TRACK 72 AUDIO
    TITLE "Disc1Track65_72"
    INDEX 01 02:10:37
  TRACK 73 AUDIO
    TITLE "Disc1Track65_73"
    INDEX 01 02:11:71
  TRACK 74 AUDIO
    TITLE "Disc1Track65_74"
    INDEX 01 02:13:06
  TRACK 75 AUDIO
    TITLE "Disc1Track65_75"
    INDEX 01 02:14:42
  TRACK 76 AUDIO
    TITLE "Disc1Track65_76"
    INDEX 01 02:15:04
  TRACK 77 AUDIO
    TITLE "Disc1Track65_77"
    INDEX 01 02:16:43
  TRACK 78 AUDIO
    TITLE "Disc1Track65_78"
    INDEX 01 02:17:64
  TRACK 79 AUDIO
    TITLE "Disc1Track65_79"
    INDEX 01 02:19:30
